<?xml version="1.0" encoding="UTF-8" standalone="no"?>
<!DOCTYPE svg PUBLIC "-//W3C//DTD SVG 1.1//EN"
 "http://www.w3.org/Graphics/SVG/1.1/DTD/svg11.dtd">
<!-- Generated by graphviz version 2.38.0 (20140413.2041)
 -->
<!-- Title: G Pages: 1 -->
<svg width="866pt" height="275pt"
 viewBox="0.00 0.00 866.30 275.02" xmlns="http://www.w3.org/2000/svg" xmlns:xlink="http://www.w3.org/1999/xlink">
<g id="graph0" class="graph" transform="scale(1 1) rotate(0) translate(4 271.021)">
<title>G</title>
<polygon fill="white" stroke="none" points="-4,4 -4,-271.021 862.305,-271.021 862.305,4 -4,4"/>
<g id="clust1" class="cluster"><title>cluster_core</title>
<polygon fill="none" stroke="black" stroke-dasharray="5,2" points="349.18,-41.0207 349.18,-259.021 491.18,-259.021 491.18,-41.0207 349.18,-41.0207"/>
<text text-anchor="middle" x="420.18" y="-243.821" font-family="Times,serif" font-size="14.00">Core</text>
</g>
<g id="clust2" class="cluster"><title>cluster_cryto</title>
<polygon fill="none" stroke="black" stroke-dasharray="5,2" points="756.098,-32.0207 756.098,-106.021 850.305,-106.021 850.305,-32.0207 756.098,-32.0207"/>
<text text-anchor="middle" x="803.201" y="-90.8207" font-family="Times,serif" font-size="14.00">Cryto</text>
</g>
<g id="clust3" class="cluster"><title>cluster_crpyto</title>
<polygon fill="none" stroke="black" stroke-dasharray="5,2" points="8,-41.0207 8,-115.021 78,-115.021 78,-41.0207 8,-41.0207"/>
<text text-anchor="middle" x="43" y="-99.8207" font-family="Times,serif" font-size="14.00">Crpyto</text>
</g>
<!-- core&#45;crypto -->
<g id="node1" class="node"><title>core&#45;crypto</title>
<polygon fill="none" stroke="orange" points="447.569,-85.0207 392.79,-85.0207 392.79,-49.0207 447.569,-49.0207 447.569,-85.0207"/>
<text text-anchor="middle" x="420.18" y="-62.8207" font-family="Times,serif" font-size="14.00">Crypto</text>
</g>
<!-- core&#45;crypto&#45;&gt;core&#45;crypto -->
<g id="edge1" class="edge"><title>core&#45;crypto&#45;&gt;core&#45;crypto</title>
<path fill="none" stroke="darkgreen" d="M392.682,-84.194C372.547,-104.425 381.713,-128.021 420.18,-128.021 453.538,-128.021 464.861,-110.277 454.149,-92.3698"/>
<polygon fill="darkgreen" stroke="darkgreen" points="456.628,-89.8624 447.677,-84.194 451.14,-94.2071 456.628,-89.8624"/>
<text text-anchor="start" x="294.59" y="-242.821" font-family="Times,serif" font-size="14.00" fill="darkgreen">github.com/pki&#45;io/core/crypto.RandomBytes</text>
<text text-anchor="start" x="323.755" y="-228.821" font-family="Times,serif" font-size="14.00">github.com/pki&#45;io/core/crypto.Pad</text>
<text text-anchor="start" x="303.935" y="-214.821" font-family="Times,serif" font-size="14.00" fill="darkgreen">github.com/pki&#45;io/core/crypto.rsaEncrypt</text>
<text text-anchor="start" x="313.255" y="-200.821" font-family="Times,serif" font-size="14.00">github.com/pki&#45;io/core/crypto.rsaSign</text>
<text text-anchor="start" x="305.873" y="-186.821" font-family="Times,serif" font-size="14.00">github.com/pki&#45;io/core/crypto.ecdsaSign</text>
<text text-anchor="start" x="308.6" y="-172.821" font-family="Times,serif" font-size="14.00">github.com/pki&#45;io/core/crypto.rsaVerify</text>
<text text-anchor="start" x="301.217" y="-158.821" font-family="Times,serif" font-size="14.00">github.com/pki&#45;io/core/crypto.ecdsaVerify</text>
<text text-anchor="start" x="308.597" y="-144.821" font-family="Times,serif" font-size="14.00">github.com/pki&#45;io/core/crypto.hmac256</text>
<text text-anchor="start" x="292.659" y="-130.821" font-family="Times,serif" font-size="14.00">github.com/pki&#45;io/core/crypto.Base64Encode</text>
</g>
<!-- cryto&#45;encryption -->
<g id="node2" class="node"><title>cryto&#45;encryption</title>
<polygon fill="none" stroke="orange" points="842.408,-76.0207 763.994,-76.0207 763.994,-40.0207 842.408,-40.0207 842.408,-76.0207"/>
<text text-anchor="middle" x="803.201" y="-53.8207" font-family="Times,serif" font-size="14.00">Encryption</text>
</g>
<!-- core&#45;crypto&#45;&gt;cryto&#45;encryption -->
<g id="edge2" class="edge"><title>core&#45;crypto&#45;&gt;cryto&#45;encryption</title>
<path fill="none" stroke="orange" d="M447.67,-66.395C510.983,-64.8995 671.857,-61.0995 753.33,-59.1751"/>
<polygon fill="orange" stroke="orange" points="753.893,-62.6629 763.807,-58.9276 753.727,-55.6648 753.893,-62.6629"/>
<text text-anchor="start" x="501.566" y="-68.8207" font-family="Times,serif" font-size="14.00" fill="orange">github.com/pki&#45;io/core/crypto.eciesEncrypt</text>
</g>
<!-- cryto&#45;encryption&#45;&gt;core&#45;crypto -->
<g id="edge4" class="edge"><title>cryto&#45;encryption&#45;&gt;core&#45;crypto</title>
<path fill="none" stroke="black" d="M780.458,-39.9349C770.609,-32.8838 758.425,-25.6355 746.098,-22.0207 641.644,8.60995 606.479,5.56264 501.18,-22.0207 484.741,-26.3269 468.115,-34.8542 454.312,-43.3386"/>
<polygon fill="black" stroke="black" points="452.215,-40.525 445.678,-48.863 455.988,-46.4211 452.215,-40.525"/>
<text text-anchor="start" x="507.007" y="-38.8207" font-family="Times,serif" font-size="14.00">github.com/pki&#45;io/core/crypto.rsaDecrypt</text>
<text text-anchor="start" x="501.18" y="-24.8207" font-family="Times,serif" font-size="14.00">github.com/pki&#45;io/core/crypto.eciesDecrypt</text>
</g>
<!-- crpyto&#45;keys -->
<g id="node3" class="node"><title>crpyto&#45;keys</title>
<polygon fill="none" stroke="darkgreen" points="70,-85.0207 16,-85.0207 16,-49.0207 70,-49.0207 70,-85.0207"/>
<text text-anchor="middle" x="43" y="-62.8207" font-family="Times,serif" font-size="14.00">Keys</text>
</g>
<!-- crpyto&#45;keys&#45;&gt;core&#45;crypto -->
<g id="edge3" class="edge"><title>crpyto&#45;keys&#45;&gt;core&#45;crypto</title>
<path fill="none" stroke="darkgreen" d="M70.084,-67.0207C135.498,-67.0207 306.677,-67.0207 382.325,-67.0207"/>
<polygon fill="darkgreen" stroke="darkgreen" points="382.769,-70.5208 392.769,-67.0207 382.769,-63.5208 382.769,-70.5208"/>
<text text-anchor="start" x="88" y="-69.8207" font-family="Times,serif" font-size="14.00" fill="darkgreen">github.com/pki&#45;io/core/crypto.RandomBytes</text>
</g>
</g>
</svg>
